<svg width="32" height="32" viewBox="0 0 32 32" fill="none" xmlns="http://www.w3.org/2000/svg">
<g clip-path="url(#clip0_3_4486)">
<path d="M18.6667 2.66666H5.33335C3.85335 2.66666 2.66669 3.86666 2.66669 5.33332V18.6667H5.33335V5.33332H18.6667V2.66666ZM24 7.99999H10.6667C9.18669 7.99999 8.00002 9.19999 8.00002 10.6667V24H10.6667V10.6667H24V7.99999ZM26.6667 13.3333H16C14.52 13.3333 13.3334 14.5333 13.3334 16V26.6667C13.3334 28.1333 14.52 29.3333 16 29.3333H26.6667C28.1334 29.3333 29.3334 28.1333 29.3334 26.6667V16C29.3334 14.5333 28.1334 13.3333 26.6667 13.3333Z" fill="black"/>
</g>
<defs>
<clipPath id="clip0_3_4486">
<rect width="32" height="32" fill="white"/>
</clipPath>
</defs>
</svg>
