<svg width="62" height="36" viewBox="0 0 62 36" fill="none" xmlns="http://www.w3.org/2000/svg">
<path d="M2.51581 1.86605H19.1672C21.0024 1.86605 22.6269 2.22916 24.0408 2.9554C25.4548 3.65138 26.5528 4.66508 27.335 5.99652C28.1172 7.29769 28.5083 8.79556 28.5083 10.4901V14.7114C28.5083 16.4664 28.1021 18.0248 27.2899 19.3865C26.4776 20.7179 25.3344 21.7619 23.8603 22.5184C22.4163 23.2446 20.7316 23.6078 18.8062 23.6078H8.74317V33.6389H2.51581V1.86605ZM18.716 18.161C19.7689 18.161 20.6263 17.8281 21.2882 17.1624C21.95 16.4664 22.2809 15.5586 22.2809 14.439V10.7624C22.2809 9.70335 21.9801 8.87121 21.3784 8.26601C20.8068 7.63055 20.0397 7.31282 19.077 7.31282H8.74317V18.161H18.716Z" fill="#FBF503"/>
<path d="M42.6933 34.002C40.3768 34.002 38.3311 33.5027 36.5562 32.5042C34.8113 31.5056 33.4576 30.0985 32.4949 28.2829C31.5322 26.4371 31.0508 24.3189 31.0508 21.9283V13.5766C31.0508 11.1861 31.5322 9.08302 32.4949 7.26743C33.4876 5.42158 34.8715 3.99937 36.6464 3.00079C38.4515 2.00222 40.5273 1.50293 42.8738 1.50293H47.6571C49.9134 1.50293 51.899 1.98709 53.6138 2.9554C55.3285 3.92372 56.6522 5.28541 57.5848 7.04048C58.5475 8.7653 59.0289 10.7776 59.0289 13.0773H52.8917C52.8917 11.2617 52.4104 9.80926 51.4477 8.71991C50.485 7.60029 49.2215 7.04048 47.6571 7.04048H42.8738C41.1891 7.04048 39.8353 7.67594 38.8125 8.94686C37.7896 10.1875 37.2782 11.8215 37.2782 13.849V21.656C37.2782 23.6834 37.7746 25.3326 38.7674 26.6035C39.7601 27.8441 41.0688 28.4645 42.6933 28.4645H47.5669C49.1613 28.4645 50.4549 27.8441 51.4477 26.6035C52.4706 25.3628 52.982 23.7288 52.982 21.7014H59.1191C59.1191 24.1524 58.6378 26.316 57.6751 28.1921C56.7124 30.038 55.3586 31.4753 53.6138 32.5042C51.8689 33.5027 49.8533 34.002 47.5669 34.002H42.6933Z" fill="#FBF503"/>
</svg>
