<svg width="30" height="30" viewBox="0 0 30 30" fill="none" xmlns="http://www.w3.org/2000/svg">
<path d="M23.6576 22.3835H22.1128L22.1199 21.4794C22.1199 21.0775 22.4474 20.7488 22.8477 20.7488H22.9462C23.3471 20.7488 23.6755 21.0775 23.6755 21.4794L23.6576 22.3835ZM17.8637 20.446C17.4719 20.446 17.1513 20.7113 17.1513 21.0363V25.4336C17.1513 25.7579 17.4719 26.0226 17.8637 26.0226C18.2571 26.0226 18.578 25.7579 18.578 25.4336V21.0363C18.578 20.711 18.2571 20.446 17.8637 20.446ZM27.2728 17.9862V26.3516C27.2728 28.3582 25.5459 30.0001 23.4356 30.0001H7.65568C5.54446 30.0001 3.81821 28.3582 3.81821 26.3516V17.9862C3.81821 15.9797 5.54446 14.3374 7.65568 14.3374H23.4356C25.5459 14.3374 27.2728 15.9797 27.2728 17.9862ZM8.70832 27.2599L8.70707 18.4479L10.6632 18.4485V17.1429L5.44877 17.135V18.4186L7.07651 18.4233V27.2599H8.70832ZM14.572 19.7605H12.9411V24.4661C12.9411 25.1468 12.9821 25.4871 12.9386 25.6072C12.806 25.9722 12.2099 26.3595 11.9776 25.6466C11.9382 25.5218 11.9729 25.1452 11.9723 24.4985L11.9657 19.7605H10.3439L10.3489 24.4238C10.3501 25.1386 10.3329 25.6718 10.3545 25.9142C10.3942 26.3418 10.3802 26.8407 10.7739 27.1253C11.5075 27.6582 12.9139 27.0459 13.2657 26.2845L13.2626 27.2561L14.5723 27.2577V19.7605H14.572ZM19.7892 25.149L19.7857 21.2326C19.7845 19.74 18.6765 18.846 17.1723 20.0536L17.1789 17.1419L15.5495 17.1445L15.5417 27.1946L16.8811 27.1748L17.0031 26.5489C18.7156 28.1319 19.7917 27.0475 19.7892 25.149ZM24.8932 24.6299L23.6701 24.6365C23.6695 24.6854 23.6679 24.7418 23.6673 24.8033V25.4909C23.6673 25.8587 23.3655 26.1584 22.999 26.1584H22.7595C22.3923 26.1584 22.0909 25.8587 22.0909 25.4909V25.4147V24.6583V23.6823H24.891V22.6202C24.891 21.844 24.8713 21.0681 24.8075 20.6244C24.6074 19.2207 22.6522 18.9979 21.6646 19.7164C21.3544 19.9408 21.1177 20.2411 20.9801 20.6448C20.8409 21.0485 20.7721 21.6001 20.7721 22.3006V24.6356C20.7724 28.5176 25.4514 27.969 24.8932 24.6299ZM18.6205 11.952C18.7047 12.1581 18.8354 12.3252 19.0127 12.4512C19.1878 12.5754 19.412 12.6378 19.68 12.6378C19.9152 12.6378 20.1235 12.5738 20.3049 12.4418C20.4856 12.3103 20.6379 12.114 20.7621 11.8521L20.7314 12.4969H22.5493V4.70605H21.1183V10.7696C21.1183 11.098 20.85 11.3668 20.5219 11.3668C20.1957 11.3668 19.9265 11.098 19.9265 10.7696V4.70605H18.4329V9.96089C18.4329 10.6303 18.4448 11.0765 18.4645 11.3028C18.4854 11.5275 18.5364 11.7431 18.6205 11.952ZM13.1115 7.55187C13.1115 6.80401 13.1734 6.22004 13.2963 5.799C13.4202 5.37953 13.6425 5.04232 13.9646 4.78799C14.2858 4.5324 14.6971 4.40445 15.1971 4.40445C15.6177 4.40445 15.978 4.48765 16.2791 4.65058C16.5815 4.81446 16.8145 5.02719 16.9765 5.28971C17.1413 5.55318 17.2533 5.82389 17.313 6.10091C17.374 6.38171 17.404 6.80527 17.404 7.37664V9.34697C17.404 10.0696 17.3752 10.6013 17.3196 10.9388C17.2642 11.2773 17.1454 11.5912 16.9615 11.8855C16.7798 12.1767 16.5456 12.3945 16.2616 12.5335C15.9745 12.6737 15.6462 12.7424 15.2753 12.7424C14.8609 12.7424 14.5119 12.6847 14.2242 12.5644C13.9356 12.4446 13.7126 12.264 13.5537 12.0242C13.3933 11.784 13.2804 11.4916 13.2122 11.1506C13.1437 10.8099 13.1112 10.2975 13.1112 9.61454V7.55187H13.1115ZM14.5354 10.6467C14.5354 11.0879 14.8612 11.4481 15.2581 11.4481C15.6552 11.4481 15.9795 11.0879 15.9795 10.6467V6.49926C15.9795 6.05868 15.6552 5.69846 15.2581 5.69846C14.8612 5.69846 14.5354 6.05868 14.5354 6.49926V10.6467ZM9.50421 12.7408H11.2192L11.2211 6.76557L13.2476 1.64687H11.3718L10.2945 5.44886L9.20181 1.63647H7.34546L9.5014 6.7684L9.50421 12.7408Z" fill="black"/>
</svg>
